# Blender 4.5.3 LTS
# www.blender.org
mtllib sky.mtl
o Sphere
v 0.000000 0.831470 -0.555570
v 0.000000 0.555570 -0.831470
v 0.000000 0.195090 -0.980785
v 0.000000 0.000000 -1.000000
v 0.038060 0.980785 -0.191342
v 0.074658 0.923880 -0.375330
v 0.108386 0.831470 -0.544895
v 0.137950 0.707107 -0.693520
v 0.162212 0.555570 -0.815493
v 0.180240 0.382683 -0.906127
v 0.191342 0.195090 -0.961940
v 0.195090 0.000000 -0.980785
v 0.074658 0.980785 -0.180240
v 0.146447 0.923880 -0.353553
v 0.212608 0.831470 -0.513280
v 0.270598 0.707107 -0.653281
v 0.318190 0.555570 -0.768178
v 0.353553 0.382683 -0.853553
v 0.375330 0.195090 -0.906127
v 0.382683 0.000000 -0.923879
v 0.108386 0.980785 -0.162212
v 0.212608 0.923880 -0.318190
v 0.308658 0.831470 -0.461940
v 0.392847 0.707107 -0.587938
v 0.461940 0.555570 -0.691342
v 0.513280 0.382683 -0.768178
v 0.544895 0.195090 -0.815493
v 0.555570 0.000000 -0.831469
v 0.137950 0.980785 -0.137950
v 0.270598 0.923880 -0.270598
v 0.392847 0.831470 -0.392847
v 0.500000 0.707107 -0.500000
v 0.587938 0.555570 -0.587938
v 0.653281 0.382683 -0.653281
v 0.693520 0.195090 -0.693520
v 0.707107 0.000000 -0.707107
v 0.162212 0.980785 -0.108386
v 0.318190 0.923880 -0.212608
v 0.461940 0.831470 -0.308658
v 0.587938 0.707107 -0.392847
v 0.691342 0.555570 -0.461940
v 0.768178 0.382683 -0.513280
v 0.815493 0.195090 -0.544895
v 0.831470 0.000000 -0.555570
v 0.000000 1.000000 0.000000
v 0.180240 0.980785 -0.074658
v 0.353553 0.923880 -0.146447
v 0.513280 0.831470 -0.212607
v 0.653281 0.707107 -0.270598
v 0.768178 0.555570 -0.318190
v 0.853553 0.382683 -0.353553
v 0.906127 0.195090 -0.375330
v 0.923879 0.000000 -0.382683
v 0.191342 0.980785 -0.038060
v 0.375330 0.923880 -0.074658
v 0.544895 0.831470 -0.108386
v 0.693520 0.707107 -0.137950
v 0.815493 0.555570 -0.162212
v 0.906127 0.382683 -0.180240
v 0.961940 0.195090 -0.191342
v 0.980785 0.000000 -0.195090
v 0.195090 0.980785 0.000000
v 0.382683 0.923880 0.000000
v 0.555570 0.831470 0.000000
v 0.707107 0.707107 -0.000000
v 0.831469 0.555570 0.000000
v 0.923879 0.382683 -0.000000
v 0.980785 0.195090 0.000000
v 1.000000 0.000000 0.000000
v 0.191342 0.980785 0.038060
v 0.375330 0.923880 0.074658
v 0.544895 0.831470 0.108386
v 0.693520 0.707107 0.137950
v 0.815493 0.555570 0.162212
v 0.906127 0.382683 0.180240
v 0.961940 0.195090 0.191342
v 0.980785 0.000000 0.195090
v 0.180240 0.980785 0.074658
v 0.353553 0.923880 0.146447
v 0.513280 0.831470 0.212608
v 0.653281 0.707107 0.270598
v 0.768178 0.555570 0.318190
v 0.853553 0.382683 0.353553
v 0.906127 0.195090 0.375330
v 0.923879 0.000000 0.382683
v 0.162212 0.980785 0.108386
v 0.318190 0.923880 0.212608
v 0.461940 0.831470 0.308658
v 0.587938 0.707107 0.392847
v 0.691341 0.555570 0.461940
v 0.768178 0.382683 0.513280
v 0.815493 0.195090 0.544895
v 0.831469 0.000000 0.555570
v 0.137950 0.980785 0.137950
v 0.270598 0.923880 0.270598
v 0.392847 0.831470 0.392847
v 0.500000 0.707107 0.500000
v 0.587938 0.555570 0.587938
v 0.653281 0.382683 0.653281
v 0.693520 0.195090 0.693520
v 0.707106 0.000000 0.707107
v 0.108386 0.980785 0.162212
v 0.212607 0.923880 0.318190
v 0.308658 0.831470 0.461940
v 0.392847 0.707107 0.587938
v 0.461940 0.555570 0.691342
v 0.513280 0.382683 0.768178
v 0.544895 0.195090 0.815493
v 0.555570 0.000000 0.831469
v 0.074658 0.980785 0.180240
v 0.146447 0.923880 0.353553
v 0.212607 0.831470 0.513280
v 0.270598 0.707107 0.653281
v 0.318189 0.555570 0.768178
v 0.353553 0.382683 0.853553
v 0.375330 0.195090 0.906127
v 0.382683 0.000000 0.923879
v 0.038060 0.980785 0.191342
v 0.074658 0.923880 0.375330
v 0.108386 0.831470 0.544895
v 0.137950 0.707107 0.693520
v 0.162212 0.555570 0.815493
v 0.180240 0.382683 0.906127
v 0.191342 0.195090 0.961939
v 0.195090 0.000000 0.980785
v -0.000000 0.980785 0.195090
v -0.000000 0.923880 0.382683
v -0.000000 0.831470 0.555570
v -0.000000 0.707107 0.707107
v -0.000000 0.555570 0.831469
v 0.000000 0.382683 0.923879
v -0.000000 0.195090 0.980785
v -0.000000 0.000000 0.999999
v -0.038060 0.980785 0.191342
v -0.074658 0.923880 0.375330
v -0.108386 0.831470 0.544895
v -0.137950 0.707107 0.693520
v -0.162212 0.555570 0.815493
v -0.180240 0.382683 0.906127
v -0.191342 0.195090 0.961939
v -0.195091 0.000000 0.980785
v -0.074658 0.980785 0.180240
v -0.146447 0.923880 0.353553
v -0.212608 0.831470 0.513280
v -0.270598 0.707107 0.653281
v -0.318190 0.555570 0.768177
v -0.353553 0.382683 0.853553
v -0.375330 0.195090 0.906127
v -0.382683 0.000000 0.923879
v -0.108386 0.980785 0.162212
v -0.212608 0.923880 0.318190
v -0.308658 0.831470 0.461939
v -0.392847 0.707107 0.587938
v -0.461940 0.555570 0.691341
v -0.513280 0.382683 0.768178
v -0.544895 0.195090 0.815493
v -0.555570 0.000000 0.831469
v -0.137950 0.980785 0.137950
v -0.270598 0.923880 0.270598
v -0.392847 0.831470 0.392847
v -0.500000 0.707107 0.500000
v -0.587938 0.555570 0.587937
v -0.653281 0.382683 0.653281
v -0.693520 0.195090 0.693520
v -0.707106 0.000000 0.707106
v -0.162212 0.980785 0.108386
v -0.318190 0.923880 0.212607
v -0.461940 0.831470 0.308658
v -0.587938 0.707107 0.392847
v -0.691341 0.555570 0.461939
v -0.768177 0.382683 0.513280
v -0.815493 0.195090 0.544895
v -0.831469 0.000000 0.555569
v -0.180240 0.980785 0.074658
v -0.353553 0.923880 0.146447
v -0.513280 0.831470 0.212607
v -0.653281 0.707107 0.270598
v -0.768177 0.555570 0.318189
v -0.853553 0.382683 0.353553
v -0.906127 0.195090 0.375330
v -0.923879 0.000000 0.382683
v -0.191342 0.980785 0.038060
v -0.375330 0.923880 0.074658
v -0.544895 0.831470 0.108386
v -0.693520 0.707107 0.137950
v -0.815493 0.555570 0.162211
v -0.906127 0.382683 0.180240
v -0.961939 0.195090 0.191341
v -0.980784 0.000000 0.195090
v -0.195090 0.980785 -0.000000
v -0.382683 0.923880 -0.000000
v -0.555570 0.831470 -0.000000
v -0.707107 0.707107 -0.000000
v -0.831469 0.555570 -0.000000
v -0.923879 0.382683 -0.000000
v -0.980785 0.195090 -0.000000
v -0.999999 0.000000 -0.000000
v -0.191342 0.980785 -0.038060
v -0.375330 0.923880 -0.074658
v -0.544895 0.831470 -0.108386
v -0.693520 0.707107 -0.137950
v -0.815493 0.555570 -0.162212
v -0.906127 0.382683 -0.180240
v -0.961939 0.195090 -0.191342
v -0.980784 0.000000 -0.195091
v -0.180240 0.980785 -0.074658
v -0.353553 0.923880 -0.146447
v -0.513279 0.831470 -0.212607
v -0.653281 0.707107 -0.270598
v -0.768177 0.555570 -0.318190
v -0.853553 0.382683 -0.353553
v -0.906127 0.195090 -0.375330
v -0.923878 0.000000 -0.382683
v -0.162212 0.980785 -0.108386
v -0.318189 0.923880 -0.212607
v -0.461939 0.831470 -0.308658
v -0.587938 0.707107 -0.392847
v -0.691341 0.555570 -0.461940
v -0.768177 0.382683 -0.513280
v -0.815493 0.195090 -0.544895
v -0.831468 0.000000 -0.555570
v -0.137950 0.980785 -0.137950
v -0.270598 0.923880 -0.270598
v -0.392847 0.831470 -0.392847
v -0.500000 0.707107 -0.500000
v -0.587937 0.555570 -0.587938
v -0.653281 0.382683 -0.653281
v -0.693519 0.195090 -0.693520
v -0.707106 0.000000 -0.707106
v -0.108386 0.980785 -0.162212
v -0.212607 0.923880 -0.318190
v -0.308658 0.831470 -0.461939
v -0.392847 0.707107 -0.587938
v -0.461939 0.555570 -0.691341
v -0.513280 0.382683 -0.768177
v -0.544895 0.195090 -0.815493
v -0.555569 0.000000 -0.831469
v -0.074658 0.980785 -0.180240
v -0.146446 0.923880 -0.353553
v -0.212607 0.831470 -0.513279
v -0.270598 0.707107 -0.653281
v -0.318189 0.555570 -0.768177
v -0.353553 0.382683 -0.853553
v -0.375330 0.195090 -0.906127
v -0.382683 0.000000 -0.923879
v -0.038060 0.980785 -0.191342
v -0.074658 0.923880 -0.375330
v -0.108386 0.831470 -0.544895
v -0.137950 0.707107 -0.693520
v -0.162211 0.555570 -0.815493
v -0.180240 0.382683 -0.906127
v -0.191341 0.195090 -0.961939
v -0.195090 0.000000 -0.980784
v 0.000000 0.980785 -0.195090
v 0.000000 0.923880 -0.382683
v 0.000000 0.707107 -0.707107
v 0.000000 0.382683 -0.923879
vn 0.0759 0.6326 -0.7708
vn 0.0865 0.4696 -0.8786
vn 0.0938 0.2890 -0.9527
vn 0.0975 0.0975 -0.9904
vn 0.0097 0.9951 -0.0980
vn 0.0286 0.9565 -0.2902
vn 0.0464 0.8810 -0.4709
vn 0.0624 0.7715 -0.6332
vn 0.1847 0.7715 -0.6088
vn 0.2248 0.6326 -0.7412
vn 0.2563 0.4696 -0.8448
vn 0.2779 0.2890 -0.9161
vn 0.2889 0.0976 -0.9524
vn 0.0286 0.9951 -0.0942
vn 0.0846 0.9565 -0.2790
vn 0.1374 0.8810 -0.4528
vn 0.4691 0.0975 -0.8777
vn 0.0464 0.9951 -0.0869
vn 0.1374 0.9565 -0.2571
vn 0.2230 0.8810 -0.4173
vn 0.2999 0.7715 -0.5611
vn 0.3651 0.6326 -0.6831
vn 0.4162 0.4696 -0.7786
vn 0.4513 0.2890 -0.8443
vn 0.4913 0.6326 -0.5987
vn 0.5601 0.4696 -0.6825
vn 0.6073 0.2890 -0.7400
vn 0.6314 0.0975 -0.7693
vn 0.0625 0.9951 -0.0761
vn 0.1850 0.9565 -0.2254
vn 0.3002 0.8810 -0.3658
vn 0.4036 0.7715 -0.4918
vn 0.0761 0.9951 -0.0625
vn 0.2254 0.9565 -0.1850
vn 0.3658 0.8810 -0.3002
vn 0.4918 0.7715 -0.4036
vn 0.5987 0.6326 -0.4913
vn 0.6825 0.4696 -0.5601
vn 0.7400 0.2890 -0.6073
vn 0.7693 0.0975 -0.6314
vn 0.6831 0.6326 -0.3651
vn 0.7786 0.4696 -0.4162
vn 0.8443 0.2890 -0.4513
vn 0.8777 0.0975 -0.4691
vn 0.0869 0.9951 -0.0464
vn 0.2571 0.9565 -0.1374
vn 0.4173 0.8810 -0.2230
vn 0.5611 0.7715 -0.2999
vn 0.2790 0.9565 -0.0846
vn 0.4528 0.8810 -0.1374
vn 0.6088 0.7715 -0.1847
vn 0.7412 0.6326 -0.2248
vn 0.8448 0.4696 -0.2563
vn 0.9161 0.2890 -0.2779
vn 0.9524 0.0975 -0.2889
vn 0.0942 0.9951 -0.0286
vn 0.8786 0.4696 -0.0865
vn 0.9527 0.2890 -0.0938
vn 0.9904 0.0975 -0.0975
vn 0.0980 0.9951 -0.0097
vn 0.2902 0.9565 -0.0286
vn 0.4709 0.8810 -0.0464
vn 0.6332 0.7715 -0.0624
vn 0.7708 0.6326 -0.0759
vn 0.2902 0.9565 0.0286
vn 0.4709 0.8810 0.0464
vn 0.6332 0.7715 0.0624
vn 0.7708 0.6326 0.0759
vn 0.8786 0.4696 0.0865
vn 0.9527 0.2890 0.0938
vn 0.9904 0.0975 0.0976
vn 0.0980 0.9951 0.0097
vn 0.8448 0.4696 0.2563
vn 0.9161 0.2890 0.2779
vn 0.9524 0.0975 0.2889
vn 0.0942 0.9951 0.0286
vn 0.2790 0.9565 0.0846
vn 0.4528 0.8810 0.1374
vn 0.6088 0.7715 0.1847
vn 0.7412 0.6326 0.2248
vn 0.4173 0.8810 0.2230
vn 0.5611 0.7715 0.2999
vn 0.6831 0.6326 0.3651
vn 0.7786 0.4696 0.4162
vn 0.8443 0.2890 0.4513
vn 0.8777 0.0975 0.4691
vn 0.0869 0.9951 0.0464
vn 0.2571 0.9565 0.1374
vn 0.7400 0.2890 0.6073
vn 0.7693 0.0975 0.6314
vn 0.0761 0.9951 0.0625
vn 0.2254 0.9565 0.1850
vn 0.3658 0.8810 0.3002
vn 0.4918 0.7715 0.4036
vn 0.5987 0.6326 0.4913
vn 0.6825 0.4696 0.5601
vn 0.4036 0.7715 0.4918
vn 0.4913 0.6326 0.5987
vn 0.5601 0.4696 0.6825
vn 0.6073 0.2890 0.7400
vn 0.6314 0.0975 0.7693
vn 0.0625 0.9951 0.0761
vn 0.1850 0.9565 0.2254
vn 0.3002 0.8810 0.3658
vn 0.4691 0.0975 0.8777
vn 0.0464 0.9951 0.0869
vn 0.1374 0.9565 0.2571
vn 0.2230 0.8810 0.4173
vn 0.2999 0.7715 0.5611
vn 0.3651 0.6326 0.6831
vn 0.4162 0.4696 0.7786
vn 0.4513 0.2890 0.8443
vn 0.1847 0.7715 0.6088
vn 0.2248 0.6326 0.7412
vn 0.2563 0.4696 0.8448
vn 0.2779 0.2890 0.9161
vn 0.2889 0.0975 0.9524
vn 0.0286 0.9951 0.0942
vn 0.0846 0.9565 0.2790
vn 0.1374 0.8810 0.4528
vn 0.0975 0.0975 0.9904
vn 0.0097 0.9951 0.0980
vn 0.0286 0.9565 0.2902
vn 0.0464 0.8810 0.4709
vn 0.0624 0.7715 0.6332
vn 0.0759 0.6326 0.7708
vn 0.0865 0.4696 0.8786
vn 0.0938 0.2890 0.9527
vn -0.0759 0.6326 0.7708
vn -0.0865 0.4696 0.8786
vn -0.0938 0.2890 0.9527
vn -0.0976 0.0975 0.9904
vn -0.0097 0.9951 0.0980
vn -0.0286 0.9565 0.2902
vn -0.0464 0.8810 0.4709
vn -0.0624 0.7715 0.6332
vn -0.0286 0.9951 0.0942
vn -0.0846 0.9565 0.2790
vn -0.1374 0.8810 0.4528
vn -0.1847 0.7715 0.6088
vn -0.2248 0.6326 0.7412
vn -0.2563 0.4696 0.8448
vn -0.2779 0.2890 0.9161
vn -0.2889 0.0975 0.9524
vn -0.3651 0.6326 0.6831
vn -0.4162 0.4696 0.7786
vn -0.4513 0.2890 0.8443
vn -0.4691 0.0975 0.8777
vn -0.0464 0.9951 0.0869
vn -0.1374 0.9565 0.2571
vn -0.2230 0.8810 0.4173
vn -0.2999 0.7715 0.5611
vn -0.1850 0.9565 0.2254
vn -0.3002 0.8810 0.3658
vn -0.4036 0.7715 0.4918
vn -0.4913 0.6326 0.5987
vn -0.5601 0.4696 0.6825
vn -0.6073 0.2890 0.7400
vn -0.6314 0.0975 0.7693
vn -0.0625 0.9951 0.0761
vn -0.6825 0.4696 0.5601
vn -0.7400 0.2890 0.6073
vn -0.7693 0.0975 0.6314
vn -0.0761 0.9951 0.0625
vn -0.2254 0.9565 0.1850
vn -0.3658 0.8810 0.3002
vn -0.4918 0.7715 0.4036
vn -0.5987 0.6326 0.4913
vn -0.4173 0.8810 0.2230
vn -0.5611 0.7715 0.2999
vn -0.6831 0.6326 0.3651
vn -0.7786 0.4696 0.4162
vn -0.8443 0.2890 0.4513
vn -0.8777 0.0975 0.4691
vn -0.0869 0.9951 0.0464
vn -0.2571 0.9565 0.1374
vn -0.9161 0.2890 0.2779
vn -0.9524 0.0975 0.2889
vn -0.0942 0.9951 0.0286
vn -0.2790 0.9565 0.0846
vn -0.4528 0.8810 0.1374
vn -0.6088 0.7715 0.1847
vn -0.7412 0.6326 0.2248
vn -0.8448 0.4696 0.2563
vn -0.4709 0.8810 0.0464
vn -0.6332 0.7715 0.0624
vn -0.7708 0.6326 0.0759
vn -0.8786 0.4696 0.0865
vn -0.9527 0.2890 0.0938
vn -0.9904 0.0975 0.0975
vn -0.0980 0.9951 0.0097
vn -0.2902 0.9565 0.0286
vn -0.9527 0.2890 -0.0938
vn -0.9904 0.0975 -0.0976
vn -0.0980 0.9951 -0.0097
vn -0.2902 0.9565 -0.0286
vn -0.4709 0.8810 -0.0464
vn -0.6332 0.7715 -0.0624
vn -0.7708 0.6326 -0.0759
vn -0.8786 0.4696 -0.0865
vn -0.6088 0.7715 -0.1847
vn -0.7412 0.6326 -0.2248
vn -0.8448 0.4696 -0.2563
vn -0.9161 0.2890 -0.2779
vn -0.9524 0.0975 -0.2889
vn -0.0942 0.9951 -0.0286
vn -0.2790 0.9565 -0.0846
vn -0.4528 0.8810 -0.1374
vn -0.8777 0.0975 -0.4691
vn -0.0869 0.9951 -0.0464
vn -0.2571 0.9565 -0.1374
vn -0.4173 0.8810 -0.2231
vn -0.5611 0.7715 -0.2999
vn -0.6831 0.6326 -0.3651
vn -0.7786 0.4696 -0.4162
vn -0.8443 0.2890 -0.4513
vn -0.4918 0.7715 -0.4036
vn -0.5987 0.6326 -0.4913
vn -0.6825 0.4696 -0.5601
vn -0.7400 0.2890 -0.6073
vn -0.7693 0.0975 -0.6314
vn -0.0761 0.9951 -0.0625
vn -0.2254 0.9565 -0.1850
vn -0.3658 0.8810 -0.3002
vn -0.6314 0.0975 -0.7693
vn -0.0625 0.9951 -0.0761
vn -0.1850 0.9565 -0.2254
vn -0.3002 0.8810 -0.3658
vn -0.4036 0.7715 -0.4918
vn -0.4913 0.6326 -0.5987
vn -0.5601 0.4696 -0.6825
vn -0.6073 0.2890 -0.7400
vn -0.3651 0.6326 -0.6831
vn -0.4162 0.4696 -0.7786
vn -0.4513 0.2890 -0.8443
vn -0.4691 0.0975 -0.8777
vn -0.0464 0.9951 -0.0869
vn -0.1374 0.9565 -0.2571
vn -0.2230 0.8810 -0.4173
vn -0.2999 0.7715 -0.5611
vn -0.0846 0.9565 -0.2790
vn -0.1374 0.8810 -0.4528
vn -0.1847 0.7715 -0.6088
vn -0.2248 0.6326 -0.7412
vn -0.2563 0.4696 -0.8448
vn -0.2779 0.2890 -0.9161
vn -0.2889 0.0975 -0.9524
vn -0.0286 0.9951 -0.0942
vn -0.0865 0.4696 -0.8786
vn -0.0938 0.2890 -0.9527
vn -0.0976 0.0975 -0.9904
vn -0.0097 0.9951 -0.0980
vn -0.0286 0.9565 -0.2902
vn -0.0464 0.8810 -0.4709
vn -0.0624 0.7715 -0.6332
vn -0.0759 0.6326 -0.7708
vt 0.750000 0.687500
vt 0.750000 0.750000
vt 0.718750 0.750000
vt 0.718750 0.687500
vt 0.750000 0.625000
vt 0.718750 0.625000
vt 0.750000 0.562500
vt 0.718750 0.562500
vt 0.750000 0.500000
vt 0.718750 0.500000
vt 0.750000 0.937500
vt 0.734375 1.000000
vt 0.718750 0.937500
vt 0.750000 0.875000
vt 0.718750 0.875000
vt 0.750000 0.812500
vt 0.718750 0.812500
vt 0.687500 0.812500
vt 0.687500 0.750000
vt 0.687500 0.687500
vt 0.687500 0.625000
vt 0.687500 0.562500
vt 0.687500 0.500000
vt 0.703125 1.000000
vt 0.687500 0.937500
vt 0.687500 0.875000
vt 0.656250 0.562500
vt 0.656250 0.500000
vt 0.671875 1.000000
vt 0.656250 0.937500
vt 0.656250 0.875000
vt 0.656250 0.812500
vt 0.656250 0.750000
vt 0.656250 0.687500
vt 0.656250 0.625000
vt 0.625000 0.750000
vt 0.625000 0.687500
vt 0.625000 0.625000
vt 0.625000 0.562500
vt 0.625000 0.500000
vt 0.640625 1.000000
vt 0.625000 0.937500
vt 0.625000 0.875000
vt 0.625000 0.812500
vt 0.609375 1.000000
vt 0.593750 0.937500
vt 0.593750 0.875000
vt 0.593750 0.812500
vt 0.593750 0.750000
vt 0.593750 0.687500
vt 0.593750 0.625000
vt 0.593750 0.562500
vt 0.593750 0.500000
vt 0.562500 0.750000
vt 0.562500 0.687500
vt 0.562500 0.625000
vt 0.562500 0.562500
vt 0.562500 0.500000
vt 0.578125 1.000000
vt 0.562500 0.937500
vt 0.562500 0.875000
vt 0.562500 0.812500
vt 0.531250 0.937500
vt 0.531250 0.875000
vt 0.531250 0.812500
vt 0.531250 0.750000
vt 0.531250 0.687500
vt 0.531250 0.625000
vt 0.531250 0.562500
vt 0.531250 0.500000
vt 0.546875 1.000000
vt 0.500000 0.687500
vt 0.500000 0.625000
vt 0.500000 0.562500
vt 0.500000 0.500000
vt 0.515625 1.000000
vt 0.500000 0.937500
vt 0.500000 0.875000
vt 0.500000 0.812500
vt 0.500000 0.750000
vt 0.468750 0.937500
vt 0.468750 0.875000
vt 0.468750 0.812500
vt 0.468750 0.750000
vt 0.468750 0.687500
vt 0.468750 0.625000
vt 0.468750 0.562500
vt 0.468750 0.500000
vt 0.484375 1.000000
vt 0.437500 0.687500
vt 0.437500 0.625000
vt 0.437500 0.562500
vt 0.437500 0.500000
vt 0.453125 1.000000
vt 0.437500 0.937500
vt 0.437500 0.875000
vt 0.437500 0.812500
vt 0.437500 0.750000
vt 0.406250 0.875000
vt 0.406250 0.812500
vt 0.406250 0.750000
vt 0.406250 0.687500
vt 0.406250 0.625000
vt 0.406250 0.562500
vt 0.406250 0.500000
vt 0.421875 1.000000
vt 0.406250 0.937500
vt 0.375000 0.625000
vt 0.375000 0.562500
vt 0.375000 0.500000
vt 0.390625 1.000000
vt 0.375000 0.937500
vt 0.375000 0.875000
vt 0.375000 0.812500
vt 0.375000 0.750000
vt 0.375000 0.687500
vt 0.343750 0.812500
vt 0.343750 0.750000
vt 0.343750 0.687500
vt 0.343750 0.625000
vt 0.343750 0.562500
vt 0.343750 0.500000
vt 0.359375 1.000000
vt 0.343750 0.937500
vt 0.343750 0.875000
vt 0.312500 0.562500
vt 0.312500 0.500000
vt 0.328125 1.000000
vt 0.312500 0.937500
vt 0.312500 0.875000
vt 0.312500 0.812500
vt 0.312500 0.750000
vt 0.312500 0.687500
vt 0.312500 0.625000
vt 0.281250 0.812500
vt 0.281250 0.750000
vt 0.281250 0.687500
vt 0.281250 0.625000
vt 0.281250 0.562500
vt 0.281250 0.500000
vt 0.296875 1.000000
vt 0.281250 0.937500
vt 0.281250 0.875000
vt 0.250000 0.562500
vt 0.250000 0.500000
vt 0.265625 1.000000
vt 0.250000 0.937500
vt 0.250000 0.875000
vt 0.250000 0.812500
vt 0.250000 0.750000
vt 0.250000 0.687500
vt 0.250000 0.625000
vt 0.218750 0.750000
vt 0.218750 0.687500
vt 0.218750 0.625000
vt 0.218750 0.562500
vt 0.218750 0.500000
vt 0.234375 1.000000
vt 0.218750 0.937500
vt 0.218750 0.875000
vt 0.218750 0.812500
vt 0.203125 1.000000
vt 0.187500 0.937500
vt 0.187500 0.875000
vt 0.187500 0.812500
vt 0.187500 0.750000
vt 0.187500 0.687500
vt 0.187500 0.625000
vt 0.187500 0.562500
vt 0.187500 0.500000
vt 0.156250 0.750000
vt 0.156250 0.687500
vt 0.156250 0.625000
vt 0.156250 0.562500
vt 0.156250 0.500000
vt 0.171875 1.000000
vt 0.156250 0.937500
vt 0.156250 0.875000
vt 0.156250 0.812500
vt 0.125000 0.937500
vt 0.125000 0.875000
vt 0.125000 0.812500
vt 0.125000 0.750000
vt 0.125000 0.687500
vt 0.125000 0.625000
vt 0.125000 0.562500
vt 0.125000 0.500000
vt 0.140625 1.000000
vt 0.093750 0.687500
vt 0.093750 0.625000
vt 0.093750 0.562500
vt 0.093750 0.500000
vt 0.109375 1.000000
vt 0.093750 0.937500
vt 0.093750 0.875000
vt 0.093750 0.812500
vt 0.093750 0.750000
vt 0.062500 0.875000
vt 0.062500 0.812500
vt 0.062500 0.750000
vt 0.062500 0.687500
vt 0.062500 0.625000
vt 0.062500 0.562500
vt 0.062500 0.500000
vt 0.078125 1.000000
vt 0.062500 0.937500
vt 0.031250 0.625000
vt 0.031250 0.562500
vt 0.031250 0.500000
vt 0.046875 1.000000
vt 0.031250 0.937500
vt 0.031250 0.875000
vt 0.031250 0.812500
vt 0.031250 0.750000
vt 0.031250 0.687500
vt 0.000000 0.875000
vt 0.000000 0.812500
vt 0.000000 0.750000
vt 0.000000 0.687500
vt 0.000000 0.625000
vt 0.000000 0.562500
vt 0.000000 0.500000
vt 0.015625 1.000000
vt 0.000000 0.937500
vt 1.000000 0.562500
vt 1.000000 0.625000
vt 0.968750 0.625000
vt 0.968750 0.562500
vt 1.000000 0.500000
vt 0.968750 0.500000
vt 1.000000 0.937500
vt 0.984375 1.000000
vt 0.968750 0.937500
vt 1.000000 0.875000
vt 0.968750 0.875000
vt 1.000000 0.812500
vt 0.968750 0.812500
vt 1.000000 0.750000
vt 0.968750 0.750000
vt 1.000000 0.687500
vt 0.968750 0.687500
vt 0.937500 0.812500
vt 0.937500 0.750000
vt 0.937500 0.687500
vt 0.937500 0.625000
vt 0.937500 0.562500
vt 0.937500 0.500000
vt 0.953125 1.000000
vt 0.937500 0.937500
vt 0.937500 0.875000
vt 0.906250 0.562500
vt 0.906250 0.500000
vt 0.921875 1.000000
vt 0.906250 0.937500
vt 0.906250 0.875000
vt 0.906250 0.812500
vt 0.906250 0.750000
vt 0.906250 0.687500
vt 0.906250 0.625000
vt 0.875000 0.812500
vt 0.875000 0.750000
vt 0.875000 0.687500
vt 0.875000 0.625000
vt 0.875000 0.562500
vt 0.875000 0.500000
vt 0.890625 1.000000
vt 0.875000 0.937500
vt 0.875000 0.875000
vt 0.843750 0.562500
vt 0.843750 0.500000
vt 0.859375 1.000000
vt 0.843750 0.937500
vt 0.843750 0.875000
vt 0.843750 0.812500
vt 0.843750 0.750000
vt 0.843750 0.687500
vt 0.843750 0.625000
vt 0.812500 0.750000
vt 0.812500 0.687500
vt 0.812500 0.625000
vt 0.812500 0.562500
vt 0.812500 0.500000
vt 0.828125 1.000000
vt 0.812500 0.937500
vt 0.812500 0.875000
vt 0.812500 0.812500
vt 0.781250 0.937500
vt 0.781250 0.875000
vt 0.781250 0.812500
vt 0.781250 0.750000
vt 0.781250 0.687500
vt 0.781250 0.625000
vt 0.781250 0.562500
vt 0.781250 0.500000
vt 0.796875 1.000000
vt 0.765625 1.000000
s 0
f 2/1/1 256/2/1 8/3/1 9/4/1
f 257/5/2 2/1/2 9/4/2 10/6/2
f 3/7/3 257/5/3 10/6/3 11/8/3
f 4/9/4 3/7/4 11/8/4 12/10/4
f 254/11/5 45/12/5 5/13/5
f 255/14/6 254/11/6 5/13/6 6/15/6
f 1/16/7 255/14/7 6/15/7 7/17/7
f 256/2/8 1/16/8 7/17/8 8/3/8
f 8/3/9 7/17/9 15/18/9 16/19/9
f 9/4/10 8/3/10 16/19/10 17/20/10
f 10/6/11 9/4/11 17/20/11 18/21/11
f 11/8/12 10/6/12 18/21/12 19/22/12
f 12/10/13 11/8/13 19/22/13 20/23/13
f 5/13/14 45/24/14 13/25/14
f 6/15/15 5/13/15 13/25/15 14/26/15
f 7/17/16 6/15/16 14/26/16 15/18/16
f 20/23/17 19/22/17 27/27/17 28/28/17
f 13/25/18 45/29/18 21/30/18
f 14/26/19 13/25/19 21/30/19 22/31/19
f 15/18/20 14/26/20 22/31/20 23/32/20
f 16/19/21 15/18/21 23/32/21 24/33/21
f 17/20/22 16/19/22 24/33/22 25/34/22
f 18/21/23 17/20/23 25/34/23 26/35/23
f 19/22/24 18/21/24 26/35/24 27/27/24
f 25/34/25 24/33/25 32/36/25 33/37/25
f 26/35/26 25/34/26 33/37/26 34/38/26
f 27/27/27 26/35/27 34/38/27 35/39/27
f 28/28/28 27/27/28 35/39/28 36/40/28
f 21/30/29 45/41/29 29/42/29
f 22/31/30 21/30/30 29/42/30 30/43/30
f 23/32/31 22/31/31 30/43/31 31/44/31
f 24/33/32 23/32/32 31/44/32 32/36/32
f 29/42/33 45/45/33 37/46/33
f 30/43/34 29/42/34 37/46/34 38/47/34
f 31/44/35 30/43/35 38/47/35 39/48/35
f 32/36/36 31/44/36 39/48/36 40/49/36
f 33/37/37 32/36/37 40/49/37 41/50/37
f 34/38/38 33/37/38 41/50/38 42/51/38
f 35/39/39 34/38/39 42/51/39 43/52/39
f 36/40/40 35/39/40 43/52/40 44/53/40
f 41/50/41 40/49/41 49/54/41 50/55/41
f 42/51/42 41/50/42 50/55/42 51/56/42
f 43/52/43 42/51/43 51/56/43 52/57/43
f 44/53/44 43/52/44 52/57/44 53/58/44
f 37/46/45 45/59/45 46/60/45
f 38/47/46 37/46/46 46/60/46 47/61/46
f 39/48/47 38/47/47 47/61/47 48/62/47
f 40/49/48 39/48/48 48/62/48 49/54/48
f 47/61/49 46/60/49 54/63/49 55/64/49
f 48/62/50 47/61/50 55/64/50 56/65/50
f 49/54/51 48/62/51 56/65/51 57/66/51
f 50/55/52 49/54/52 57/66/52 58/67/52
f 51/56/53 50/55/53 58/67/53 59/68/53
f 52/57/54 51/56/54 59/68/54 60/69/54
f 53/58/55 52/57/55 60/69/55 61/70/55
f 46/60/56 45/71/56 54/63/56
f 59/68/57 58/67/57 66/72/57 67/73/57
f 60/69/58 59/68/58 67/73/58 68/74/58
f 61/70/59 60/69/59 68/74/59 69/75/59
f 54/63/60 45/76/60 62/77/60
f 55/64/61 54/63/61 62/77/61 63/78/61
f 56/65/62 55/64/62 63/78/62 64/79/62
f 57/66/63 56/65/63 64/79/63 65/80/63
f 58/67/64 57/66/64 65/80/64 66/72/64
f 63/78/65 62/77/65 70/81/65 71/82/65
f 64/79/66 63/78/66 71/82/66 72/83/66
f 65/80/67 64/79/67 72/83/67 73/84/67
f 66/72/68 65/80/68 73/84/68 74/85/68
f 67/73/69 66/72/69 74/85/69 75/86/69
f 68/74/70 67/73/70 75/86/70 76/87/70
f 69/75/71 68/74/71 76/87/71 77/88/71
f 62/77/72 45/89/72 70/81/72
f 75/86/73 74/85/73 82/90/73 83/91/73
f 76/87/74 75/86/74 83/91/74 84/92/74
f 77/88/75 76/87/75 84/92/75 85/93/75
f 70/81/76 45/94/76 78/95/76
f 71/82/77 70/81/77 78/95/77 79/96/77
f 72/83/78 71/82/78 79/96/78 80/97/78
f 73/84/79 72/83/79 80/97/79 81/98/79
f 74/85/80 73/84/80 81/98/80 82/90/80
f 80/97/81 79/96/81 87/99/81 88/100/81
f 81/98/82 80/97/82 88/100/82 89/101/82
f 82/90/83 81/98/83 89/101/83 90/102/83
f 83/91/84 82/90/84 90/102/84 91/103/84
f 84/92/85 83/91/85 91/103/85 92/104/85
f 85/93/86 84/92/86 92/104/86 93/105/86
f 78/95/87 45/106/87 86/107/87
f 79/96/88 78/95/88 86/107/88 87/99/88
f 92/104/89 91/103/89 99/108/89 100/109/89
f 93/105/90 92/104/90 100/109/90 101/110/90
f 86/107/91 45/111/91 94/112/91
f 87/99/92 86/107/92 94/112/92 95/113/92
f 88/100/93 87/99/93 95/113/93 96/114/93
f 89/101/94 88/100/94 96/114/94 97/115/94
f 90/102/95 89/101/95 97/115/95 98/116/95
f 91/103/96 90/102/96 98/116/96 99/108/96
f 97/115/97 96/114/97 104/117/97 105/118/97
f 98/116/98 97/115/98 105/118/98 106/119/98
f 99/108/99 98/116/99 106/119/99 107/120/99
f 100/109/100 99/108/100 107/120/100 108/121/100
f 101/110/101 100/109/101 108/121/101 109/122/101
f 94/112/102 45/123/102 102/124/102
f 95/113/103 94/112/103 102/124/103 103/125/103
f 96/114/104 95/113/104 103/125/104 104/117/104
f 109/122/105 108/121/105 116/126/105 117/127/105
f 102/124/106 45/128/106 110/129/106
f 103/125/107 102/124/107 110/129/107 111/130/107
f 104/117/108 103/125/108 111/130/108 112/131/108
f 105/118/109 104/117/109 112/131/109 113/132/109
f 106/119/110 105/118/110 113/132/110 114/133/110
f 107/120/111 106/119/111 114/133/111 115/134/111
f 108/121/112 107/120/112 115/134/112 116/126/112
f 113/132/113 112/131/113 120/135/113 121/136/113
f 114/133/114 113/132/114 121/136/114 122/137/114
f 115/134/115 114/133/115 122/137/115 123/138/115
f 116/126/116 115/134/116 123/138/116 124/139/116
f 117/127/117 116/126/117 124/139/117 125/140/117
f 110/129/118 45/141/118 118/142/118
f 111/130/119 110/129/119 118/142/119 119/143/119
f 112/131/120 111/130/120 119/143/120 120/135/120
f 125/140/121 124/139/121 132/144/121 133/145/121
f 118/142/122 45/146/122 126/147/122
f 119/143/123 118/142/123 126/147/123 127/148/123
f 120/135/124 119/143/124 127/148/124 128/149/124
f 121/136/125 120/135/125 128/149/125 129/150/125
f 122/137/126 121/136/126 129/150/126 130/151/126
f 123/138/127 122/137/127 130/151/127 131/152/127
f 124/139/128 123/138/128 131/152/128 132/144/128
f 130/151/129 129/150/129 137/153/129 138/154/129
f 131/152/130 130/151/130 138/154/130 139/155/130
f 132/144/131 131/152/131 139/155/131 140/156/131
f 133/145/132 132/144/132 140/156/132 141/157/132
f 126/147/133 45/158/133 134/159/133
f 127/148/134 126/147/134 134/159/134 135/160/134
f 128/149/135 127/148/135 135/160/135 136/161/135
f 129/150/136 128/149/136 136/161/136 137/153/136
f 134/159/137 45/162/137 142/163/137
f 135/160/138 134/159/138 142/163/138 143/164/138
f 136/161/139 135/160/139 143/164/139 144/165/139
f 137/153/140 136/161/140 144/165/140 145/166/140
f 138/154/141 137/153/141 145/166/141 146/167/141
f 139/155/142 138/154/142 146/167/142 147/168/142
f 140/156/143 139/155/143 147/168/143 148/169/143
f 141/157/144 140/156/144 148/169/144 149/170/144
f 146/167/145 145/166/145 153/171/145 154/172/145
f 147/168/146 146/167/146 154/172/146 155/173/146
f 148/169/147 147/168/147 155/173/147 156/174/147
f 149/170/148 148/169/148 156/174/148 157/175/148
f 142/163/149 45/176/149 150/177/149
f 143/164/150 142/163/150 150/177/150 151/178/150
f 144/165/151 143/164/151 151/178/151 152/179/151
f 145/166/152 144/165/152 152/179/152 153/171/152
f 151/178/153 150/177/153 158/180/153 159/181/153
f 152/179/154 151/178/154 159/181/154 160/182/154
f 153/171/155 152/179/155 160/182/155 161/183/155
f 154/172/156 153/171/156 161/183/156 162/184/156
f 155/173/157 154/172/157 162/184/157 163/185/157
f 156/174/158 155/173/158 163/185/158 164/186/158
f 157/175/159 156/174/159 164/186/159 165/187/159
f 150/177/160 45/188/160 158/180/160
f 163/185/161 162/184/161 170/189/161 171/190/161
f 164/186/162 163/185/162 171/190/162 172/191/162
f 165/187/163 164/186/163 172/191/163 173/192/163
f 158/180/164 45/193/164 166/194/164
f 159/181/165 158/180/165 166/194/165 167/195/165
f 160/182/166 159/181/166 167/195/166 168/196/166
f 161/183/167 160/182/167 168/196/167 169/197/167
f 162/184/168 161/183/168 169/197/168 170/189/168
f 168/196/169 167/195/169 175/198/169 176/199/169
f 169/197/170 168/196/170 176/199/170 177/200/170
f 170/189/171 169/197/171 177/200/171 178/201/171
f 171/190/172 170/189/172 178/201/172 179/202/172
f 172/191/173 171/190/173 179/202/173 180/203/173
f 173/192/174 172/191/174 180/203/174 181/204/174
f 166/194/175 45/205/175 174/206/175
f 167/195/176 166/194/176 174/206/176 175/198/176
f 180/203/177 179/202/177 187/207/177 188/208/177
f 181/204/178 180/203/178 188/208/178 189/209/178
f 174/206/179 45/210/179 182/211/179
f 175/198/180 174/206/180 182/211/180 183/212/180
f 176/199/181 175/198/181 183/212/181 184/213/181
f 177/200/182 176/199/182 184/213/182 185/214/182
f 178/201/183 177/200/183 185/214/183 186/215/183
f 179/202/184 178/201/184 186/215/184 187/207/184
f 184/213/185 183/212/185 191/216/185 192/217/185
f 185/214/186 184/213/186 192/217/186 193/218/186
f 186/215/187 185/214/187 193/218/187 194/219/187
f 187/207/188 186/215/188 194/219/188 195/220/188
f 188/208/189 187/207/189 195/220/189 196/221/189
f 189/209/190 188/208/190 196/221/190 197/222/190
f 182/211/191 45/223/191 190/224/191
f 183/212/192 182/211/192 190/224/192 191/216/192
f 196/225/193 195/226/193 203/227/193 204/228/193
f 197/229/194 196/225/194 204/228/194 205/230/194
f 190/231/195 45/232/195 198/233/195
f 191/234/196 190/231/196 198/233/196 199/235/196
f 192/236/197 191/234/197 199/235/197 200/237/197
f 193/238/198 192/236/198 200/237/198 201/239/198
f 194/240/199 193/238/199 201/239/199 202/241/199
f 195/226/200 194/240/200 202/241/200 203/227/200
f 201/239/201 200/237/201 208/242/201 209/243/201
f 202/241/202 201/239/202 209/243/202 210/244/202
f 203/227/203 202/241/203 210/244/203 211/245/203
f 204/228/204 203/227/204 211/245/204 212/246/204
f 205/230/205 204/228/205 212/246/205 213/247/205
f 198/233/206 45/248/206 206/249/206
f 199/235/207 198/233/207 206/249/207 207/250/207
f 200/237/208 199/235/208 207/250/208 208/242/208
f 213/247/209 212/246/209 220/251/209 221/252/209
f 206/249/210 45/253/210 214/254/210
f 207/250/211 206/249/211 214/254/211 215/255/211
f 208/242/212 207/250/212 215/255/212 216/256/212
f 209/243/213 208/242/213 216/256/213 217/257/213
f 210/244/214 209/243/214 217/257/214 218/258/214
f 211/245/215 210/244/215 218/258/215 219/259/215
f 212/246/216 211/245/216 219/259/216 220/251/216
f 217/257/217 216/256/217 224/260/217 225/261/217
f 218/258/218 217/257/218 225/261/218 226/262/218
f 219/259/219 218/258/219 226/262/219 227/263/219
f 220/251/220 219/259/220 227/263/220 228/264/220
f 221/252/221 220/251/221 228/264/221 229/265/221
f 214/254/222 45/266/222 222/267/222
f 215/255/223 214/254/223 222/267/223 223/268/223
f 216/256/224 215/255/224 223/268/224 224/260/224
f 229/265/225 228/264/225 236/269/225 237/270/225
f 222/267/226 45/271/226 230/272/226
f 223/268/227 222/267/227 230/272/227 231/273/227
f 224/260/228 223/268/228 231/273/228 232/274/228
f 225/261/229 224/260/229 232/274/229 233/275/229
f 226/262/230 225/261/230 233/275/230 234/276/230
f 227/263/231 226/262/231 234/276/231 235/277/231
f 228/264/232 227/263/232 235/277/232 236/269/232
f 234/276/233 233/275/233 241/278/233 242/279/233
f 235/277/234 234/276/234 242/279/234 243/280/234
f 236/269/235 235/277/235 243/280/235 244/281/235
f 237/270/236 236/269/236 244/281/236 245/282/236
f 230/272/237 45/283/237 238/284/237
f 231/273/238 230/272/238 238/284/238 239/285/238
f 232/274/239 231/273/239 239/285/239 240/286/239
f 233/275/240 232/274/240 240/286/240 241/278/240
f 239/285/241 238/284/241 246/287/241 247/288/241
f 240/286/242 239/285/242 247/288/242 248/289/242
f 241/278/243 240/286/243 248/289/243 249/290/243
f 242/279/244 241/278/244 249/290/244 250/291/244
f 243/280/245 242/279/245 250/291/245 251/292/245
f 244/281/246 243/280/246 251/292/246 252/293/246
f 245/282/247 244/281/247 252/293/247 253/294/247
f 238/284/248 45/295/248 246/287/248
f 251/292/249 250/291/249 2/1/249 257/5/249
f 252/293/250 251/292/250 257/5/250 3/7/250
f 253/294/251 252/293/251 3/7/251 4/9/251
f 246/287/252 45/296/252 254/11/252
f 247/288/253 246/287/253 254/11/253 255/14/253
f 248/289/254 247/288/254 255/14/254 1/16/254
f 249/290/255 248/289/255 1/16/255 256/2/255
f 250/291/256 249/290/256 256/2/256 2/1/256
